<?xml version="1.0" encoding="UTF-8"?>
<svg version="1.1" xmlns="http://www.w3.org/2000/svg" width="500" height="500">
<path d="M0 0 C0.59796387 0.43248047 1.19592773 0.86496094 1.81201172 1.31054688 C21.54892723 15.60939051 40.07578487 31.62121876 55 51 C56.14082031 52.39798828 56.14082031 52.39798828 57.3046875 53.82421875 C87.54373313 91.55056801 107.90671952 142.30793025 108.23828125 190.93359375 C108.246353 192.0837648 108.25442474 193.23393585 108.26274109 194.41896057 C108.27653581 196.85554523 108.28727846 199.29214883 108.29516602 201.72875977 C108.30658003 204.17087649 108.32685919 206.61297043 108.35668945 209.05493164 C109.07085109 267.68401158 88.1227503 324.40999742 50 369 C49.34 369.77214844 48.68 370.54429687 48 371.33984375 C37.26982316 383.55354883 25.8266032 395.04559654 12.734375 404.70996094 C10.98038797 406.01458755 9.25511043 407.35120384 7.53125 408.6953125 C-37.97482353 443.72017667 -94.33854302 458.2589232 -151 457 C-151.82564453 456.98598145 -152.65128906 456.97196289 -153.50195312 456.95751953 C-188.75732743 456.24919905 -224.03303682 446.50044283 -255.12792969 429.98681641 C-256.99367942 429.00333174 -258.87298831 428.05180144 -260.7578125 427.10546875 C-270.40995466 422.19892124 -279.2503566 416.36460896 -288 410 C-288.58555664 409.57428711 -289.17111328 409.14857422 -289.77441406 408.70996094 C-297.00999487 403.40054736 -303.71673148 397.69092182 -310.24609375 391.54296875 C-312.18256485 389.75482309 -314.10867443 388.06604116 -316.14453125 386.40234375 C-318.43772222 384.47305176 -320.33859849 382.65862181 -322.25 380.375 C-324.99767007 377.13925696 -327.84412144 374.03189284 -330.75 370.9375 C-376.845829 320.29504143 -393.28462693 252.85635181 -390.89160156 185.97021484 C-388.39766718 137.22927094 -367.46565312 88.62023363 -337 51 C-336.15375604 49.93062961 -335.30861796 48.86038269 -334.46484375 47.7890625 C-329.96581097 42.15562523 -325.19805112 36.9905901 -320 32 C-319.195625 31.195625 -318.39125 30.39125 -317.5625 29.5625 C-316.716875 28.716875 -315.87125 27.87125 -315 27 C-314.401875 26.36707031 -313.80375 25.73414062 -313.1875 25.08203125 C-306.6643081 18.30702496 -299.51728883 12.61386669 -292 7 C-291.35530762 6.5162793 -290.71061523 6.03255859 -290.04638672 5.53417969 C-255.5307086 -20.15545547 -213.96154274 -37.52158464 -171 -42 C-169.96746094 -42.11085937 -168.93492187 -42.22171875 -167.87109375 -42.3359375 C-109.85942279 -47.31028704 -47.61339032 -34.98126636 0 0 Z " fill="#000000" transform="translate(391,43)"/>
<path d="M0 0 C24.65429778 12.86311189 41.38170237 37.63254856 49.97265625 63.4921875 C54.55429303 79.1359511 54.69074962 94.78912948 55 111 C55.76699219 110.04867187 56.53398437 109.09734375 57.32421875 108.1171875 C60.242662 104.49733688 63.23083587 102.34341996 67.984375 101.75390625 C72.08753343 101.62279029 75.3356382 102.1678191 79 104 C79 106 79 106 77.60546875 107.42578125 C77.07566406 107.94527344 76.54585938 108.46476562 76 109 C70.88291629 118.66560256 72.55769586 129.9500511 74 140.41015625 C75.08134979 148.50219174 75.33924776 156.49660059 75.31567383 164.65405273 C75.31250589 166.93326435 75.33613305 169.21118067 75.36132812 171.49023438 C75.46852607 196.64056138 69.06918578 219.87375878 51.60546875 238.5625 C37.15290295 252.77671763 15.78569562 260.06209485 -4.3125 260.125 C-5.529375 260.08375 -6.74625 260.0425 -8 260 C-8 258.35 -8 256.7 -8 255 C-7.19175781 254.64808594 -6.38351562 254.29617188 -5.55078125 253.93359375 C2.36962106 250.27434877 6.56656152 247.60559935 10.09375 239.48046875 C13.06125058 228.08373163 12.87175149 212.35330637 7 202 C6.57589844 201.20851563 6.15179688 200.41703125 5.71484375 199.6015625 C3.07517986 195.17516233 0.92408459 192.93376922 -3.64111328 190.57470703 C-7.05893104 187.94710702 -8.26641049 185.8914464 -8.8258667 181.71478271 C-9.24988331 175.99773682 -9.14540315 170.28229052 -9.0546875 164.5546875 C-9.05058755 162.42107513 -9.04975463 160.28745421 -9.05203247 158.15383911 C-9.04725525 153.68294323 -9.01205839 149.21367415 -8.95361328 144.74316406 C-8.88022114 139.04381863 -8.86791966 133.34645807 -8.87696648 127.64671135 C-8.87950729 123.23845249 -8.85627854 118.83062548 -8.82483292 114.42248917 C-8.81153512 112.32320259 -8.80437725 110.22386702 -8.80373764 108.12453842 C-8.7815518 97.58718743 -8.75145872 88.32700128 -4.21995544 78.63552856 C2.61477889 63.87012245 2.46523357 45.54821192 2.4375 29.5625 C2.43763092 28.77544678 2.43776184 27.98839355 2.43789673 27.17749023 C2.41024418 17.93549971 1.9094851 9.0813742 0 0 Z " fill="#02DFFD" transform="translate(306,118)"/>
<path d="M0 0 C1.22967184 0.00184359 2.45934368 0.00368717 3.72627831 0.00558662 C4.75177145 0.00302335 4.75177145 0.00302335 5.79798162 0.00040829 C8.0997369 -0.00289847 10.40120372 0.00813634 12.70293236 0.01904488 C14.34852657 0.01960874 15.99412128 0.01929293 17.63971519 0.01815987 C22.11677047 0.01758436 26.5937193 0.02937055 31.07074976 0.04330778 C35.74593922 0.05578229 40.42113092 0.05698304 45.09633446 0.0593586 C53.95382489 0.06558303 62.81126616 0.08200685 71.66873491 0.10205758 C81.75080748 0.12438665 91.83288236 0.13540247 101.9149735 0.14544845 C122.65861705 0.16637227 143.40219317 0.2030605 164.14580345 0.24609566 C164.14580345 22.02609566 164.14580345 43.80609566 164.14580345 66.24609566 C135.43770581 66.48707767 135.43770581 66.48707767 121.24825954 66.54761887 C113.576755 66.58085637 105.90564226 66.6230398 98.2344265 66.69873238 C91.51057958 66.76504541 84.78724433 66.79980575 78.06305695 66.81535912 C75.4981837 66.82644245 72.93333357 66.84808578 70.3686409 66.880476 C66.77489073 66.924056 63.18289074 66.93002864 59.58891869 66.927248 C58.52939995 66.94881966 57.46988121 66.97039131 56.37825584 66.99261665 C50.23284016 66.94119216 46.84128165 66.1371399 42.44985104 61.71813583 C42.01951533 61.23236258 41.58917963 60.74658932 41.14580345 60.24609566 C40.55412376 59.62605659 39.96244408 59.00601753 39.3528347 58.36718941 C38.66254173 57.5338105 38.66254173 57.5338105 37.95830345 56.68359566 C34.78038661 52.94613589 31.48478941 49.33888359 28.14580345 45.74609566 C24.37663067 41.68295161 20.66587001 37.58641667 17.04424095 33.39062691 C15.01383011 31.09701466 12.93259364 28.85763068 10.84184837 26.61914253 C8.25695605 23.84585635 5.69528755 21.05194316 3.14580345 18.24609566 C2.67158958 17.72483101 2.19737572 17.20356636 1.70879173 16.66650581 C0.39880668 15.20915327 -0.88468165 13.72811288 -2.16669655 12.24609566 C-2.90532936 11.40047066 -3.64396217 10.55484566 -4.4049778 9.68359566 C-5.85419655 7.24609566 -5.85419655 7.24609566 -5.7096653 4.55859566 C-4.45285406 1.1611881 -3.65071159 0.31477309 0 0 Z " fill="#577DCC" transform="translate(109.85419654846191,216.75390434265137)"/>
<path d="M0 0 C1.13214432 -0.00058411 2.26428864 -0.00116821 3.43074036 -0.00177002 C7.16987857 0.0010149 10.90821797 0.03212796 14.6472168 0.06347656 C17.24081486 0.07093745 19.83441857 0.0766311 22.42802429 0.08062744 C28.55497121 0.09433531 34.68158885 0.12585491 40.80841178 0.1660254 C48.47011989 0.21516619 56.13187475 0.23702653 63.79370117 0.25878906 C77.45733555 0.2977193 91.12034531 0.37785149 104.78393555 0.45410156 C104.78393555 21.90410156 104.78393555 43.35410156 104.78393555 65.45410156 C83.06164937 65.52177007 61.33944827 65.57705505 39.61708355 65.60953808 C29.53146789 65.62502005 19.44592227 65.64613493 9.36035156 65.68041992 C0.57180209 65.71028162 -8.21669667 65.72966688 -17.00529546 65.73636705 C-21.66064586 65.7402848 -26.31585117 65.74951954 -30.97115517 65.77129173 C-35.35005778 65.79160593 -39.72875509 65.79794568 -44.10770035 65.79342461 C-45.71739631 65.79425209 -47.32709892 65.8002479 -48.93675423 65.81171799 C-51.12986926 65.82658327 -53.32220302 65.82307762 -55.51533508 65.81486511 C-56.74408513 65.81763049 -57.97283518 65.82039587 -59.23882008 65.82324505 C-62.21606445 65.45410156 -62.21606445 65.45410156 -64.14340496 64.08585072 C-65.21606445 62.45410156 -65.21606445 62.45410156 -65.0793457 59.98535156 C-64.17277714 57.32717767 -63.30652482 55.99133407 -61.40356445 53.95410156 C-60.4619043 52.92929687 -60.4619043 52.92929687 -59.5012207 51.88378906 C-58.74711914 51.08199219 -57.99301758 50.28019531 -57.21606445 49.45410156 C-56.27614881 48.43690022 -55.33742201 47.41859954 -54.3996582 46.39941406 C-52.3357907 44.15754633 -50.26757474 41.91981125 -48.1965332 39.68457031 C-44.92646838 36.14866345 -41.7078594 32.56791256 -38.4934082 28.98144531 C-35.45641576 25.6110609 -32.38794163 22.26989011 -29.31494141 18.93237305 C-25.58317088 14.87370336 -21.92104204 10.75635736 -18.28637695 6.61035156 C-17.60317383 5.89878906 -16.9199707 5.18722656 -16.21606445 4.45410156 C-15.57969559 3.75899475 -14.94332672 3.06388794 -14.28767395 2.34771729 C-9.64583507 -0.51392873 -5.35012481 -0.07212902 0 0 Z " fill="#7464E3" transform="translate(169.216064453125,315.5458984375)"/>
<path d="M0 0 C1.47024879 -0.00412399 1.47024879 -0.00412399 2.97019958 -0.0083313 C4.04409943 -0.00114075 5.11799927 0.0060498 6.22444153 0.01345825 C7.35629379 0.0131662 8.48814606 0.01287415 9.65429688 0.01257324 C13.40407415 0.01396915 17.15365394 0.02954281 20.90339661 0.04519653 C23.49985648 0.04892573 26.09631776 0.05177314 28.69277954 0.05377197 C34.8338459 0.06063403 40.97483048 0.0764049 47.11586601 0.09647095 C54.79307609 0.12101236 62.47029772 0.13196509 70.14753723 0.14285278 C83.84355621 0.16233628 97.53941991 0.20239988 111.23542786 0.24050903 C111.23542786 21.69050903 111.23542786 43.14050903 111.23542786 65.24050903 C89.51314168 65.30817754 67.79094058 65.36346252 46.06857586 65.39594555 C35.9829602 65.41142752 25.89741458 65.4325424 15.81184387 65.46682739 C7.0232944 65.49668909 -1.76520436 65.51607435 -10.55380315 65.52277452 C-15.20915355 65.52669227 -19.86435886 65.53592701 -24.51966286 65.5576992 C-28.89856547 65.5780134 -33.27726278 65.58435315 -37.65620804 65.57983208 C-39.265904 65.58065956 -40.87560661 65.58665537 -42.48526192 65.59812546 C-44.67837695 65.61299074 -46.87071071 65.60948509 -49.06384277 65.60127258 C-50.29259282 65.60403796 -51.52134287 65.60680334 -52.78732777 65.60965252 C-55.76457214 65.24050903 -55.76457214 65.24050903 -57.68287945 63.86322498 C-58.76457214 62.24050903 -58.76457214 62.24050903 -58.77238464 59.91629028 C-57.44289976 56.3864564 -55.23191344 54.07498885 -52.63957214 51.42800903 C-51.62455949 50.35835061 -50.6102351 49.28803866 -49.59660339 48.21707153 C-49.10498718 47.70305786 -48.61337097 47.18904419 -48.1068573 46.65945435 C-46.45987728 44.91841253 -44.88696771 43.12224208 -43.32707214 41.30300903 C-39.74519906 37.17140003 -36.02619256 33.17120977 -32.3099823 29.16091919 C-29.24884799 25.85527618 -26.21039263 22.53198932 -23.20207214 19.17800903 C-19.77178546 15.35891472 -16.34001651 11.54140249 -12.88957214 7.74050903 C-12.42478455 7.2235144 -11.95999695 6.70651978 -11.48112488 6.17385864 C-7.82341702 2.15727628 -5.51424147 -0.01192268 0 0 Z " fill="#3E96BA" transform="translate(162.7645721435547,118.75949096679688)"/>
<path d="M0 0 C0.33 0 0.66 0 1 0 C1.33 17.49 1.66 34.98 2 53 C23.04593568 34.50208347 23.04593568 34.50208347 31.625 8.5625 C31.69976562 7.69753906 31.77453125 6.83257812 31.8515625 5.94140625 C31.90054687 5.30074219 31.94953125 4.66007813 32 4 C34.61290728 6.31327269 35.85075867 8.49566243 37.19921875 11.69921875 C37.80020386 13.1236731 37.80020386 13.1236731 38.41333008 14.5769043 C38.83380615 15.60340088 39.25428223 16.62989746 39.6875 17.6875 C40.12666748 18.75460205 40.56583496 19.8217041 41.01831055 20.92114258 C54.62774726 54.50750812 69.8633851 98.99840779 55.55859375 134.5859375 C48.98590356 149.4064779 38.57174832 158.5366268 23.8125 164.8125 C17.97421807 166.96233667 12.28052862 167.84574217 6.11645508 168.3684082 C4.40469237 168.51963894 2.70051877 168.75253645 1 169 C0.505 169.99 0.505 169.99 0 171 C0 169.35 0 167.7 0 166 C0.80824219 165.64808594 1.61648438 165.29617188 2.44921875 164.93359375 C10.36962106 161.27434877 14.56656152 158.60559935 18.09375 150.48046875 C21.06125058 139.08373163 20.87175149 123.35330637 15 113 C14.57589844 112.20851563 14.15179688 111.41703125 13.71484375 110.6015625 C11.06890571 106.16464133 8.93496311 103.9448894 4.34790039 101.60327148 C1.80359342 99.64776665 0.28253821 98.13832622 -0.50307083 94.9731636 C-1.31342358 88.3781531 -1.0294877 81.7253153 -0.87890625 75.09765625 C-0.86210989 72.93292388 -0.84930357 70.76815718 -0.84031677 68.6033783 C-0.80603369 62.9192273 -0.71769725 57.23716248 -0.61798096 51.55383301 C-0.5257371 45.74906638 -0.48477123 39.94396095 -0.43945312 34.13867188 C-0.34307287 22.75820044 -0.1895678 11.37927402 0 0 Z " fill="#00FDA3" transform="translate(298,207)"/>
<path d="M0 0 C10.48187299 5.98964171 16.08942302 13.16880481 19.54418945 24.83813477 C20.46822812 29.22076056 20.2703234 33.72521531 20.3125 38.1875 C20.34150391 39.19103516 20.37050781 40.19457031 20.40039062 41.22851562 C20.46907175 49.34873781 18.4567331 54.84245168 14.375 61.75 C10.78217822 65.1537259 5.11583327 69 0 69 C0 46.23 0 23.46 0 0 Z " fill="#D425FC" transform="translate(298,304)"/>
</svg>
